<?xml version="1.0" encoding="utf-8"?>
<svg viewBox="0 0 1000 1000" xmlns="http://www.w3.org/2000/svg">
  <rect style="stroke: rgb(255, 255, 255);stroke-width:10; fill: rgb(24, 49, 83);" width="1000" height="1000" rx="50" ry="50"/>
  <path d="M 308.541 215.625 C 315.522 236.031 304.179 258.015 283.363 264.817 L 250.705 275.385 L 250.705 422.238 C 250.705 486.616 304.302 538.847 370.366 538.847 C 436.43 538.847 490.027 486.616 490.027 422.238 L 490.027 275.385 L 457.495 264.817 C 436.553 258.015 425.336 236.031 432.316 215.625 C 439.297 195.218 461.858 184.286 482.798 191.088 L 515.332 201.654 C 547.864 212.222 569.803 241.86 569.803 275.385 L 569.803 422.238 C 569.803 516.011 501.746 594.234 411.125 612.577 C 418.979 680.476 478.062 733.193 549.858 733.193 C 627.016 733.193 689.465 672.338 689.465 597.15 L 689.465 511.274 C 654.189 496.333 629.634 462.079 629.634 422.238 C 629.634 368.549 674.257 325.065 729.35 325.065 C 784.446 325.065 829.069 368.549 829.069 422.238 C 829.069 462.079 804.514 496.333 769.238 511.274 L 769.238 597.15 C 769.238 715.216 671.017 810.931 549.858 810.931 C 434.061 810.931 339.329 723.596 331.102 612.819 C 239.736 594.964 170.931 516.496 170.931 422.238 L 170.931 275.385 C 170.931 241.982 192.868 212.222 225.526 201.654 L 258.06 191.088 C 279 184.286 301.561 195.339 308.541 215.625 Z M 729.35 461.108 C 751.413 461.108 769.238 443.738 769.238 422.238 C 769.238 400.738 751.413 383.37 729.35 383.37 C 707.288 383.37 689.465 400.738 689.465 422.238 C 689.465 443.738 707.288 461.108 729.35 461.108 Z" style="fill: rgb(255, 255, 255);"/>
</svg>